<?xml version="1.0" encoding="UTF-8" standalone="no"?>
<svg
   style="height: 512px; width: 512px;"
   viewBox="0 0 512 512"
   version="1.1"
   id="svg2"
   sodipodi:docname="user.svg"
   inkscape:version="1.3.2 (091e20ef0f, 2023-11-25, custom)"
   xmlns:inkscape="http://www.inkscape.org/namespaces/inkscape"
   xmlns:sodipodi="http://sodipodi.sourceforge.net/DTD/sodipodi-0.dtd"
   xmlns="http://www.w3.org/2000/svg"
   xmlns:svg="http://www.w3.org/2000/svg">
  <sodipodi:namedview
     id="namedview2"
     pagecolor="#505050"
     bordercolor="#ffffff"
     borderopacity="1"
     inkscape:showpageshadow="0"
     inkscape:pageopacity="0"
     inkscape:pagecheckerboard="1"
     inkscape:deskcolor="#505050"
     inkscape:zoom="1.5800781"
     inkscape:cx="68.983931"
     inkscape:cy="467.38195"
     inkscape:window-width="1920"
     inkscape:window-height="1012"
     inkscape:window-x="0"
     inkscape:window-y="32"
     inkscape:window-maximized="1"
     inkscape:current-layer="g2" />
  <defs
     id="defs1">
    <clipPath
       id="icon-bg">
      <circle
         cx="256"
         cy="256"
         r="256"
         fill="#bcbbbb"
         fill-opacity="1"
         id="circle1" />
    </clipPath>
  </defs>
  <circle
     cx="256"
     cy="256"
     r="256"
     fill="#bcbbbb"
     fill-opacity="1"
     id="circle2" />
  <g
     class=""
     transform="matrix(1.2348154,0,0,1.0491858,-60.118629,-2.2329143)"
     id="g2">
    <path
       d="m 255,45.4 c -24.5,0 -47,11.8 -63.9,33.4 -16.9,21.5 -27.1,52.6 -27.1,86.5 0,36 12.1,67.5 31,89.5 l 13.5,15 -19.6,4.6 c -52.3,11.9 -77.4,36.9 -91.75,75.2 -13.7,35.7 -13.520404,34.4506 -12.980602,34.38444 55.602392,128.36026 268.137662,154.53838 344.335982,-2.52741 0,0 0.0252,0.0723 -10.50538,-34.05703 C 404.6,308 380.1,283.1 324,272 l -19.9,-3.7 12.9,-15.7 c 17.7,-21.9 28.8,-52.6 28.8,-87.5 0,-33.9 -10.3,-64.9 -27.2,-86.3 C 301.8,57.1 279.3,45.2 255,45.4 Z"
       fill="#ffffff"
       fill-opacity="1"
       clip-path="url(#icon-bg)"
       id="path2"
       sodipodi:nodetypes="ccsccccccccccscc" />
  </g>
</svg>
